<svg width="275" height="72" viewBox="0 0 275 72" fill="none" xmlns="http://www.w3.org/2000/svg">
<path d="M92.0116 28.1094H99.9412C103.509 28.1094 106.146 28.7669 107.851 30.082C109.557 31.3971 110.41 33.3828 110.41 36.0391C110.41 37.5234 110.124 38.7604 109.551 39.75C108.991 40.7266 108.268 41.5143 107.383 42.1133C106.497 42.7122 105.573 43.1745 104.609 43.5L112.5 56H108.398L101.387 44.4766H95.5467V56H92.0116V28.1094ZM99.7264 31.1562H95.5467V41.5078H99.9412C102.311 41.5078 104.043 41.0651 105.137 40.1797C106.23 39.2812 106.777 37.9531 106.777 36.1953C106.777 34.3724 106.198 33.0768 105.039 32.3086C103.893 31.5404 102.122 31.1562 99.7264 31.1562ZM124.387 34.6719C127.043 34.6719 129.133 35.5378 130.656 37.2695C132.18 38.9883 132.942 41.2734 132.942 44.125V46.1953H118.762C118.827 48.5521 119.426 50.3555 120.559 51.6055C121.705 52.8424 123.306 53.4609 125.363 53.4609C126.679 53.4609 127.844 53.3372 128.86 53.0898C129.888 52.8424 130.943 52.4844 132.024 52.0156V55.0234C130.956 55.4922 129.908 55.8372 128.879 56.0586C127.85 56.2799 126.626 56.3906 125.207 56.3906C123.241 56.3906 121.503 55.987 119.992 55.1797C118.495 54.3594 117.323 53.1549 116.477 51.5664C115.63 49.9779 115.207 48.0182 115.207 45.6875C115.207 43.3958 115.591 41.4297 116.36 39.7891C117.128 38.1354 118.202 36.8724 119.582 36C120.962 35.1146 122.564 34.6719 124.387 34.6719ZM124.348 37.4844C122.733 37.4844 121.457 38.0117 120.52 39.0664C119.582 40.1211 119.022 41.5859 118.84 43.4609H129.367C129.354 41.6771 128.944 40.2383 128.137 39.1445C127.33 38.0378 126.067 37.4844 124.348 37.4844Z" fill="#181C14"/>
<mask id="path-2-outside-1_1166_589" maskUnits="userSpaceOnUse" x="146" y="25" width="115" height="33" fill="black">
<rect fill="white" x="146" y="25" width="115" height="33"/>
<path d="M147.773 28.1094H154.687C157.656 28.1094 159.882 28.6302 161.367 29.6719C162.851 30.7005 163.593 32.4844 163.593 35.0234C163.593 36.6641 163.209 38.0247 162.441 39.1055C161.686 40.1862 160.644 40.8828 159.316 41.1953V41.3906C160.24 41.5859 161.08 41.931 161.835 42.4258C162.591 42.9206 163.189 43.6237 163.632 44.5352C164.088 45.4466 164.316 46.625 164.316 48.0703C164.316 50.6094 163.58 52.569 162.109 53.9492C160.65 55.3164 158.652 56 156.113 56H147.773V28.1094ZM151.288 39.9844H155.175C156.998 39.9844 158.255 39.6003 158.945 38.832C159.635 38.0508 159.98 36.9115 159.98 35.4141C159.98 33.8906 159.563 32.7969 158.73 32.1328C157.897 31.4557 156.575 31.1172 154.765 31.1172H151.288V39.9844ZM155.331 42.9141H151.288V53.0312H155.566C157.454 53.0312 158.769 52.5495 159.511 51.5859C160.253 50.6224 160.624 49.3594 160.624 47.7969C160.624 46.3255 160.24 45.1471 159.472 44.2617C158.704 43.3633 157.324 42.9141 155.331 42.9141ZM173.8 26.3125V56H170.363V26.3125H173.8ZM199.809 45.4922C199.809 48.9688 198.904 51.6576 197.094 53.5586C195.297 55.4466 192.862 56.3906 189.789 56.3906C187.888 56.3906 186.189 55.9674 184.691 55.1211C183.207 54.2617 182.035 53.0247 181.176 51.4102C180.329 49.7826 179.906 47.8099 179.906 45.4922C179.906 42.0286 180.798 39.3594 182.582 37.4844C184.379 35.6094 186.82 34.6719 189.906 34.6719C191.846 34.6719 193.559 35.0951 195.043 35.9414C196.54 36.7878 197.706 38.0182 198.539 39.6328C199.385 41.2344 199.809 43.1875 199.809 45.4922ZM183.48 45.4922C183.48 47.9661 183.988 49.9258 185.004 51.3711C186.033 52.8164 187.654 53.5391 189.867 53.5391C192.068 53.5391 193.682 52.8164 194.711 51.3711C195.74 49.9258 196.254 47.9661 196.254 45.4922C196.254 43.0052 195.733 41.0651 194.691 39.6719C193.663 38.2656 192.042 37.5625 189.828 37.5625C187.615 37.5625 186 38.2656 184.984 39.6719C183.982 41.0651 183.48 43.0052 183.48 45.4922ZM224.059 45.4922C224.059 48.9688 223.154 51.6576 221.344 53.5586C219.547 55.4466 217.112 56.3906 214.039 56.3906C212.138 56.3906 210.439 55.9674 208.942 55.1211C207.457 54.2617 206.285 53.0247 205.426 51.4102C204.58 49.7826 204.157 47.8099 204.157 45.4922C204.157 42.0286 205.048 39.3594 206.832 37.4844C208.629 35.6094 211.071 34.6719 214.157 34.6719C216.097 34.6719 217.809 35.0951 219.293 35.9414C220.791 36.7878 221.956 38.0182 222.789 39.6328C223.636 41.2344 224.059 43.1875 224.059 45.4922ZM207.731 45.4922C207.731 47.9661 208.239 49.9258 209.254 51.3711C210.283 52.8164 211.904 53.5391 214.118 53.5391C216.318 53.5391 217.933 52.8164 218.961 51.3711C219.99 49.9258 220.504 47.9661 220.504 45.4922C220.504 43.0052 219.983 41.0651 218.942 39.6719C217.913 38.2656 216.292 37.5625 214.078 37.5625C211.865 37.5625 210.25 38.2656 209.235 39.6719C208.232 41.0651 207.731 43.0052 207.731 45.4922ZM252.801 34.6719C255.184 34.6719 256.962 35.2839 258.133 36.5078C259.318 37.7188 259.911 39.6719 259.911 42.3672V56H256.532V42.5234C256.532 39.2161 255.1 37.5625 252.235 37.5625C250.191 37.5625 248.726 38.1549 247.84 39.3398C246.955 40.5117 246.512 42.2109 246.512 44.4375V56H243.114V42.5234C243.114 39.2161 241.669 37.5625 238.778 37.5625C236.656 37.5625 235.184 38.2135 234.364 39.5156C233.544 40.8177 233.133 42.6927 233.133 45.1406V56H229.696V35.0625H232.489L232.997 37.9141H233.192C233.843 36.8203 234.722 36.0065 235.829 35.4727C236.949 34.9388 238.14 34.6719 239.403 34.6719C242.697 34.6719 244.846 35.8438 245.848 38.1875H246.044C246.747 36.9896 247.704 36.1042 248.915 35.5312C250.126 34.9583 251.421 34.6719 252.801 34.6719Z"/>
</mask>
<path d="M147.773 28.1094H154.687C157.656 28.1094 159.882 28.6302 161.367 29.6719C162.851 30.7005 163.593 32.4844 163.593 35.0234C163.593 36.6641 163.209 38.0247 162.441 39.1055C161.686 40.1862 160.644 40.8828 159.316 41.1953V41.3906C160.24 41.5859 161.08 41.931 161.835 42.4258C162.591 42.9206 163.189 43.6237 163.632 44.5352C164.088 45.4466 164.316 46.625 164.316 48.0703C164.316 50.6094 163.58 52.569 162.109 53.9492C160.65 55.3164 158.652 56 156.113 56H147.773V28.1094ZM151.288 39.9844H155.175C156.998 39.9844 158.255 39.6003 158.945 38.832C159.635 38.0508 159.98 36.9115 159.98 35.4141C159.98 33.8906 159.563 32.7969 158.73 32.1328C157.897 31.4557 156.575 31.1172 154.765 31.1172H151.288V39.9844ZM155.331 42.9141H151.288V53.0312H155.566C157.454 53.0312 158.769 52.5495 159.511 51.5859C160.253 50.6224 160.624 49.3594 160.624 47.7969C160.624 46.3255 160.24 45.1471 159.472 44.2617C158.704 43.3633 157.324 42.9141 155.331 42.9141ZM173.8 26.3125V56H170.363V26.3125H173.8ZM199.809 45.4922C199.809 48.9688 198.904 51.6576 197.094 53.5586C195.297 55.4466 192.862 56.3906 189.789 56.3906C187.888 56.3906 186.189 55.9674 184.691 55.1211C183.207 54.2617 182.035 53.0247 181.176 51.4102C180.329 49.7826 179.906 47.8099 179.906 45.4922C179.906 42.0286 180.798 39.3594 182.582 37.4844C184.379 35.6094 186.82 34.6719 189.906 34.6719C191.846 34.6719 193.559 35.0951 195.043 35.9414C196.54 36.7878 197.706 38.0182 198.539 39.6328C199.385 41.2344 199.809 43.1875 199.809 45.4922ZM183.48 45.4922C183.48 47.9661 183.988 49.9258 185.004 51.3711C186.033 52.8164 187.654 53.5391 189.867 53.5391C192.068 53.5391 193.682 52.8164 194.711 51.3711C195.74 49.9258 196.254 47.9661 196.254 45.4922C196.254 43.0052 195.733 41.0651 194.691 39.6719C193.663 38.2656 192.042 37.5625 189.828 37.5625C187.615 37.5625 186 38.2656 184.984 39.6719C183.982 41.0651 183.48 43.0052 183.48 45.4922ZM224.059 45.4922C224.059 48.9688 223.154 51.6576 221.344 53.5586C219.547 55.4466 217.112 56.3906 214.039 56.3906C212.138 56.3906 210.439 55.9674 208.942 55.1211C207.457 54.2617 206.285 53.0247 205.426 51.4102C204.58 49.7826 204.157 47.8099 204.157 45.4922C204.157 42.0286 205.048 39.3594 206.832 37.4844C208.629 35.6094 211.071 34.6719 214.157 34.6719C216.097 34.6719 217.809 35.0951 219.293 35.9414C220.791 36.7878 221.956 38.0182 222.789 39.6328C223.636 41.2344 224.059 43.1875 224.059 45.4922ZM207.731 45.4922C207.731 47.9661 208.239 49.9258 209.254 51.3711C210.283 52.8164 211.904 53.5391 214.118 53.5391C216.318 53.5391 217.933 52.8164 218.961 51.3711C219.99 49.9258 220.504 47.9661 220.504 45.4922C220.504 43.0052 219.983 41.0651 218.942 39.6719C217.913 38.2656 216.292 37.5625 214.078 37.5625C211.865 37.5625 210.25 38.2656 209.235 39.6719C208.232 41.0651 207.731 43.0052 207.731 45.4922ZM252.801 34.6719C255.184 34.6719 256.962 35.2839 258.133 36.5078C259.318 37.7188 259.911 39.6719 259.911 42.3672V56H256.532V42.5234C256.532 39.2161 255.1 37.5625 252.235 37.5625C250.191 37.5625 248.726 38.1549 247.84 39.3398C246.955 40.5117 246.512 42.2109 246.512 44.4375V56H243.114V42.5234C243.114 39.2161 241.669 37.5625 238.778 37.5625C236.656 37.5625 235.184 38.2135 234.364 39.5156C233.544 40.8177 233.133 42.6927 233.133 45.1406V56H229.696V35.0625H232.489L232.997 37.9141H233.192C233.843 36.8203 234.722 36.0065 235.829 35.4727C236.949 34.9388 238.14 34.6719 239.403 34.6719C242.697 34.6719 244.846 35.8438 245.848 38.1875H246.044C246.747 36.9896 247.704 36.1042 248.915 35.5312C250.126 34.9583 251.421 34.6719 252.801 34.6719Z" fill="#181C14"/>
<path d="M147.773 28.1094V27.1094H146.773V28.1094H147.773ZM161.367 29.6719L160.792 30.4904L160.797 30.4938L161.367 29.6719ZM162.441 39.1055L161.626 38.5261L161.621 38.5327L162.441 39.1055ZM159.316 41.1953L159.087 40.2219L158.316 40.4033V41.1953H159.316ZM159.316 41.3906H158.316V42.2014L159.109 42.369L159.316 41.3906ZM163.632 44.5352L162.733 44.9721L162.738 44.9824L163.632 44.5352ZM162.109 53.9492L162.793 54.6788L162.793 54.6786L162.109 53.9492ZM147.773 56H146.773V57H147.773V56ZM151.288 39.9844H150.288V40.9844H151.288V39.9844ZM158.945 38.832L159.689 39.5003L159.694 39.4941L158.945 38.832ZM158.73 32.1328L158.099 32.909L158.107 32.9149L158.73 32.1328ZM151.288 31.1172V30.1172H150.288V31.1172H151.288ZM151.288 42.9141V41.9141H150.288V42.9141H151.288ZM151.288 53.0312H150.288V54.0312H151.288V53.0312ZM159.472 44.2617L158.712 44.9116L158.717 44.9171L159.472 44.2617ZM147.773 28.1094V29.1094H154.687V28.1094V27.1094H147.773V28.1094ZM154.687 28.1094V29.1094C157.569 29.1094 159.553 29.6206 160.792 30.4904L161.367 29.6719L161.941 28.8533C160.212 27.6398 157.742 27.1094 154.687 27.1094V28.1094ZM161.367 29.6719L160.797 30.4938C161.912 31.2665 162.593 32.6687 162.593 35.0234H163.593H164.593C164.593 32.3 163.79 30.1345 161.936 28.8499L161.367 29.6719ZM163.593 35.0234H162.593C162.593 36.5063 162.248 37.6512 161.626 38.5261L162.441 39.1055L163.256 39.6848C164.17 38.3983 164.593 36.8218 164.593 35.0234H163.593ZM162.441 39.1055L161.621 38.5327C161.012 39.4042 160.185 39.9636 159.087 40.2219L159.316 41.1953L159.545 42.1687C161.103 41.802 162.359 40.9682 163.26 39.6783L162.441 39.1055ZM159.316 41.1953H158.316V41.3906H159.316H160.316V41.1953H159.316ZM159.316 41.3906L159.109 42.369C159.918 42.5399 160.641 42.8387 161.287 43.2622L161.835 42.4258L162.383 41.5893C161.519 41.0233 160.563 40.632 159.522 40.4122L159.316 41.3906ZM161.835 42.4258L161.287 43.2622C161.874 43.6463 162.359 44.2027 162.733 44.9721L163.632 44.5352L164.532 44.0983C164.02 43.0447 163.308 42.1948 162.383 41.5893L161.835 42.4258ZM163.632 44.5352L162.738 44.9824C163.101 45.7093 163.316 46.7195 163.316 48.0703H164.316H165.316C165.316 46.5305 165.075 45.1839 164.527 44.0879L163.632 44.5352ZM164.316 48.0703H163.316C163.316 50.4091 162.645 52.0751 161.425 53.2199L162.109 53.9492L162.793 54.6786C164.515 53.0629 165.316 50.8096 165.316 48.0703H164.316ZM162.109 53.9492L161.425 53.2197C160.198 54.3697 158.469 55 156.113 55V56V57C158.834 57 161.103 56.2631 162.793 54.6788L162.109 53.9492ZM156.113 56V55H147.773V56V57H156.113V56ZM147.773 56H148.773V28.1094H147.773H146.773V56H147.773ZM151.288 39.9844V40.9844H155.175V39.9844V38.9844H151.288V39.9844ZM155.175 39.9844V40.9844C157.078 40.9844 158.706 40.5943 159.689 39.5003L158.945 38.832L158.201 38.1638C157.803 38.6062 156.918 38.9844 155.175 38.9844V39.9844ZM158.945 38.832L159.694 39.4941C160.604 38.4643 160.98 37.0502 160.98 35.4141H159.98H158.98C158.98 36.7727 158.666 37.6373 158.195 38.17L158.945 38.832ZM159.98 35.4141H160.98C160.98 33.7229 160.514 32.2759 159.353 31.3508L158.73 32.1328L158.107 32.9149C158.612 33.3178 158.98 34.0583 158.98 35.4141H159.98ZM158.73 32.1328L159.36 31.3567C158.262 30.4645 156.661 30.1172 154.765 30.1172V31.1172V32.1172C156.489 32.1172 157.531 32.447 158.099 32.9089L158.73 32.1328ZM154.765 31.1172V30.1172H151.288V31.1172V32.1172H154.765V31.1172ZM151.288 31.1172H150.288V39.9844H151.288H152.288V31.1172H151.288ZM155.331 42.9141V41.9141H151.288V42.9141V43.9141H155.331V42.9141ZM151.288 42.9141H150.288V53.0312H151.288H152.288V42.9141H151.288ZM151.288 53.0312V54.0312H155.566V53.0312V52.0312H151.288V53.0312ZM155.566 53.0312V54.0312C157.59 54.0312 159.286 53.5167 160.303 52.1962L159.511 51.5859L158.719 50.9757C158.252 51.5823 157.318 52.0312 155.566 52.0312V53.0312ZM159.511 51.5859L160.303 52.1962C161.214 51.0134 161.624 49.5167 161.624 47.7969H160.624H159.624C159.624 49.202 159.292 50.2314 158.719 50.9757L159.511 51.5859ZM160.624 47.7969H161.624C161.624 46.1482 161.191 44.7165 160.227 43.6064L159.472 44.2617L158.717 44.9171C159.29 45.5778 159.624 46.5028 159.624 47.7969H160.624ZM159.472 44.2617L160.232 43.6118C159.177 42.3775 157.423 41.9141 155.331 41.9141V42.9141V43.9141C157.224 43.9141 158.231 44.3491 158.712 44.9116L159.472 44.2617ZM173.8 26.3125H174.8V25.3125H173.8V26.3125ZM173.8 56V57H174.8V56H173.8ZM170.363 56H169.363V57H170.363V56ZM170.363 26.3125V25.3125H169.363V26.3125H170.363ZM173.8 26.3125H172.8V56H173.8H174.8V26.3125H173.8ZM173.8 56V55H170.363V56V57H173.8V56ZM170.363 56H171.363V26.3125H170.363H169.363V56H170.363ZM170.363 26.3125V27.3125H173.8V26.3125V25.3125H170.363V26.3125ZM197.094 53.5586L196.369 52.8691L196.369 52.8692L197.094 53.5586ZM184.691 55.1211L184.19 55.9866L184.199 55.9917L184.691 55.1211ZM181.176 51.4102L180.289 51.8715L180.293 51.88L181.176 51.4102ZM182.582 37.4844L181.86 36.7925L181.858 36.7951L182.582 37.4844ZM195.043 35.9414L194.548 36.8101L194.551 36.812L195.043 35.9414ZM198.539 39.6328L197.65 40.0915L197.655 40.1L198.539 39.6328ZM185.004 51.3711L184.186 51.946L184.189 51.9509L185.004 51.3711ZM194.691 39.6719L193.884 40.2623L193.891 40.2707L194.691 39.6719ZM184.984 39.6719L184.174 39.0864L184.173 39.0878L184.984 39.6719ZM199.809 45.4922H198.809C198.809 48.7977 197.951 51.2079 196.369 52.8691L197.094 53.5586L197.818 54.2481C199.856 52.1072 200.809 49.1398 200.809 45.4922H199.809ZM197.094 53.5586L196.369 52.8692C194.795 54.5234 192.641 55.3906 189.789 55.3906V56.3906V57.3906C193.083 57.3906 195.799 56.3698 197.818 54.248L197.094 53.5586ZM189.789 56.3906V55.3906C188.042 55.3906 186.515 55.0033 185.183 54.2505L184.691 55.1211L184.199 55.9917C185.862 56.9316 187.734 57.3906 189.789 57.3906V56.3906ZM184.691 55.1211L185.192 54.2557C183.881 53.4962 182.836 52.4014 182.059 50.9403L181.176 51.4102L180.293 51.88C181.234 53.6481 182.533 55.0273 184.19 55.9865L184.691 55.1211ZM181.176 51.4102L182.063 50.9488C181.308 49.4963 180.906 47.6906 180.906 45.4922H179.906H178.906C178.906 47.9292 179.351 50.0688 180.289 51.8715L181.176 51.4102ZM179.906 45.4922H180.906C180.906 42.1964 181.753 39.807 183.307 38.1737L182.582 37.4844L181.858 36.7951C179.844 38.9117 178.906 41.8609 178.906 45.4922H179.906ZM182.582 37.4844L183.304 38.1763C184.877 36.5348 187.037 35.6719 189.906 35.6719V34.6719V33.6719C186.603 33.6719 183.881 34.6839 181.86 36.7925L182.582 37.4844ZM189.906 34.6719V35.6719C191.697 35.6719 193.234 36.0609 194.548 36.8101L195.043 35.9414L195.538 35.0727C193.884 34.1292 191.996 33.6719 189.906 33.6719V34.6719ZM195.043 35.9414L194.551 36.812C195.869 37.557 196.901 38.6396 197.65 40.0915L198.539 39.6328L199.428 39.1742C198.51 37.3969 197.212 36.0185 195.535 35.0708L195.043 35.9414ZM198.539 39.6328L197.655 40.1C198.407 41.5237 198.809 43.3071 198.809 45.4922H199.809H200.809C200.809 43.0679 200.364 40.945 199.423 39.1656L198.539 39.6328ZM183.48 45.4922H182.48C182.48 48.0921 183.013 50.2771 184.186 51.946L185.004 51.3711L185.822 50.7961C184.964 49.5745 184.48 47.8402 184.48 45.4922H183.48ZM185.004 51.3711L184.189 51.9509C185.452 53.7254 187.42 54.5391 189.867 54.5391V53.5391V52.5391C187.887 52.5391 186.613 51.9074 185.819 50.7912L185.004 51.3711ZM189.867 53.5391V54.5391C192.304 54.5391 194.264 53.7238 195.526 51.9509L194.711 51.3711L193.896 50.7912C193.101 51.909 191.831 52.5391 189.867 52.5391V53.5391ZM194.711 51.3711L195.526 51.9509C196.714 50.2813 197.254 48.0943 197.254 45.4922H196.254H195.254C195.254 47.838 194.765 49.5703 193.896 50.7912L194.711 51.3711ZM196.254 45.4922H197.254C197.254 42.8791 196.708 40.6994 195.492 39.0731L194.691 39.6719L193.891 40.2707C194.758 41.4308 195.254 43.1313 195.254 45.4922H196.254ZM194.691 39.6719L195.499 39.0815C194.231 37.3493 192.265 36.5625 189.828 36.5625V37.5625V38.5625C191.818 38.5625 193.094 39.182 193.884 40.2623L194.691 39.6719ZM189.828 37.5625V36.5625C187.392 36.5625 185.428 37.3492 184.174 39.0864L184.984 39.6719L185.795 40.2574C186.572 39.182 187.837 38.5625 189.828 38.5625V37.5625ZM184.984 39.6719L184.173 39.0878C183.004 40.7121 182.48 42.8858 182.48 45.4922H183.48H184.48C184.48 43.1246 184.96 41.4181 185.796 40.256L184.984 39.6719ZM221.344 53.5586L220.62 52.8691L220.62 52.8692L221.344 53.5586ZM208.942 55.1211L208.441 55.9866L208.45 55.9917L208.942 55.1211ZM205.426 51.4102L204.539 51.8715L204.543 51.88L205.426 51.4102ZM206.832 37.4844L206.11 36.7925L206.108 36.7951L206.832 37.4844ZM219.293 35.9414L218.798 36.8101L218.801 36.812L219.293 35.9414ZM222.789 39.6328L221.901 40.0915L221.905 40.1L222.789 39.6328ZM209.254 51.3711L208.436 51.946L208.439 51.9509L209.254 51.3711ZM218.942 39.6719L218.135 40.2623L218.141 40.2707L218.942 39.6719ZM209.235 39.6719L208.424 39.0864L208.423 39.0878L209.235 39.6719ZM224.059 45.4922H223.059C223.059 48.7977 222.201 51.2079 220.62 52.8691L221.344 53.5586L222.068 54.2481C224.107 52.1072 225.059 49.1398 225.059 45.4922H224.059ZM221.344 53.5586L220.62 52.8692C219.045 54.5234 216.892 55.3906 214.039 55.3906V56.3906V57.3906C217.333 57.3906 220.049 56.3698 222.068 54.248L221.344 53.5586ZM214.039 56.3906V55.3906C212.292 55.3906 210.766 55.0033 209.434 54.2505L208.942 55.1211L208.45 55.9917C210.113 56.9316 211.984 57.3906 214.039 57.3906V56.3906ZM208.942 55.1211L209.443 54.2557C208.131 53.4962 207.087 52.4014 206.309 50.9403L205.426 51.4102L204.543 51.88C205.484 53.6481 206.784 55.0273 208.441 55.9865L208.942 55.1211ZM205.426 51.4102L206.313 50.9488C205.558 49.4963 205.157 47.6906 205.157 45.4922H204.157H203.157C203.157 47.9292 203.601 50.0688 204.539 51.8715L205.426 51.4102ZM204.157 45.4922H205.157C205.157 42.1964 206.003 39.807 207.557 38.1737L206.832 37.4844L206.108 36.7951C204.094 38.9117 203.157 41.8609 203.157 45.4922H204.157ZM206.832 37.4844L207.554 38.1763C209.127 36.5348 211.288 35.6719 214.157 35.6719V34.6719V33.6719C210.854 33.6719 208.131 34.6839 206.11 36.7925L206.832 37.4844ZM214.157 34.6719V35.6719C215.947 35.6719 217.484 36.0609 218.798 36.8101L219.293 35.9414L219.789 35.0727C218.134 34.1292 216.246 33.6719 214.157 33.6719V34.6719ZM219.293 35.9414L218.801 36.812C220.119 37.557 221.151 38.6396 221.901 40.0915L222.789 39.6328L223.678 39.1742C222.761 37.3969 221.462 36.0185 219.785 35.0708L219.293 35.9414ZM222.789 39.6328L221.905 40.1C222.658 41.5237 223.059 43.3071 223.059 45.4922H224.059H225.059C225.059 43.0679 224.614 40.945 223.674 39.1656L222.789 39.6328ZM207.731 45.4922H206.731C206.731 48.0921 207.263 50.2771 208.436 51.946L209.254 51.3711L210.072 50.7961C209.214 49.5745 208.731 47.8402 208.731 45.4922H207.731ZM209.254 51.3711L208.439 51.9509C209.702 53.7254 211.67 54.5391 214.118 54.5391V53.5391V52.5391C212.138 52.5391 210.863 51.9074 210.069 50.7912L209.254 51.3711ZM214.118 53.5391V54.5391C216.554 54.5391 218.514 53.7238 219.776 51.9509L218.961 51.3711L218.147 50.7912C217.351 51.909 216.082 52.5391 214.118 52.5391V53.5391ZM218.961 51.3711L219.776 51.9509C220.964 50.2813 221.504 48.0943 221.504 45.4922H220.504H219.504C219.504 47.838 219.015 49.5703 218.147 50.7912L218.961 51.3711ZM220.504 45.4922H221.504C221.504 42.8791 220.959 40.6994 219.743 39.0731L218.942 39.6719L218.141 40.2707C219.008 41.4308 219.504 43.1313 219.504 45.4922H220.504ZM218.942 39.6719L219.749 39.0815C218.482 37.3493 216.515 36.5625 214.078 36.5625V37.5625V38.5625C216.069 38.5625 217.344 39.182 218.135 40.2623L218.942 39.6719ZM214.078 37.5625V36.5625C211.642 36.5625 209.679 37.3492 208.424 39.0864L209.235 39.6719L210.045 40.2574C210.822 39.182 212.088 38.5625 214.078 38.5625V37.5625ZM209.235 39.6719L208.423 39.0878C207.254 40.7121 206.731 42.8858 206.731 45.4922H207.731H208.731C208.731 43.1246 209.21 41.4181 210.046 40.256L209.235 39.6719ZM258.133 36.5078L257.411 37.1994L257.419 37.2072L258.133 36.5078ZM259.911 56V57H260.911V56H259.911ZM256.532 56H255.532V57H256.532V56ZM247.84 39.3398L248.638 39.9427L248.642 39.9384L247.84 39.3398ZM246.512 56V57H247.512V56H246.512ZM243.114 56H242.114V57H243.114V56ZM233.133 56V57H234.133V56H233.133ZM229.696 56H228.696V57H229.696V56ZM229.696 35.0625V34.0625H228.696V35.0625H229.696ZM232.489 35.0625L233.473 34.8872L233.327 34.0625H232.489V35.0625ZM232.997 37.9141L232.012 38.0894L232.159 38.9141H232.997V37.9141ZM233.192 37.9141V38.9141H233.761L234.051 38.4255L233.192 37.9141ZM235.829 35.4727L235.398 34.57L235.394 34.572L235.829 35.4727ZM245.848 38.1875L244.929 38.5808L245.188 39.1875H245.848V38.1875ZM246.044 38.1875V39.1875H246.616L246.906 38.6937L246.044 38.1875ZM248.915 35.5312L248.487 34.6273L248.915 35.5312ZM252.801 34.6719V35.6719C255.024 35.6719 256.494 36.2414 257.411 37.1994L258.133 36.5078L258.856 35.8162C257.429 34.3263 255.344 33.6719 252.801 33.6719V34.6719ZM258.133 36.5078L257.419 37.2072C258.338 38.1468 258.911 39.7848 258.911 42.3672H259.911H260.911C260.911 39.559 260.299 37.2907 258.848 35.8084L258.133 36.5078ZM259.911 42.3672H258.911V56H259.911H260.911V42.3672H259.911ZM259.911 56V55H256.532V56V57H259.911V56ZM256.532 56H257.532V42.5234H256.532H255.532V56H256.532ZM256.532 42.5234H257.532C257.532 40.7481 257.151 39.2298 256.214 38.148C255.253 37.0388 253.862 36.5625 252.235 36.5625V37.5625V38.5625C253.473 38.5625 254.23 38.9131 254.702 39.4574C255.197 40.0293 255.532 40.9915 255.532 42.5234H256.532ZM252.235 37.5625V36.5625C250.004 36.5625 248.179 37.2157 247.039 38.7413L247.84 39.3398L248.642 39.9384C249.272 39.0942 250.377 38.5625 252.235 38.5625V37.5625ZM247.84 39.3398L247.043 38.737C245.974 40.1516 245.512 42.0997 245.512 44.4375H246.512H247.512C247.512 42.3222 247.936 40.8719 248.638 39.9427L247.84 39.3398ZM246.512 44.4375H245.512V56H246.512H247.512V44.4375H246.512ZM246.512 56V55H243.114V56V57H246.512V56ZM243.114 56H244.114V42.5234H243.114H242.114V56H243.114ZM243.114 42.5234H244.114C244.114 40.7462 243.728 39.2266 242.783 38.1446C241.815 37.037 240.415 36.5625 238.778 36.5625V37.5625V38.5625C240.032 38.5625 240.8 38.9148 241.277 39.4608C241.777 40.0325 242.114 40.9933 242.114 42.5234H243.114ZM238.778 37.5625V36.5625C236.456 36.5625 234.587 37.2859 233.518 38.9826L234.364 39.5156L235.21 40.0487C235.782 39.1411 236.855 38.5625 238.778 38.5625V37.5625ZM234.364 39.5156L233.518 38.9826C232.554 40.5126 232.133 42.6056 232.133 45.1406H233.133H234.133C234.133 42.7798 234.533 41.1228 235.21 40.0487L234.364 39.5156ZM233.133 45.1406H232.133V56H233.133H234.133V45.1406H233.133ZM233.133 56V55H229.696V56V57H233.133V56ZM229.696 56H230.696V35.0625H229.696H228.696V56H229.696ZM229.696 35.0625V36.0625H232.489V35.0625V34.0625H229.696V35.0625ZM232.489 35.0625L231.504 35.2378L232.012 38.0894L232.997 37.9141L233.981 37.7387L233.473 34.8872L232.489 35.0625ZM232.997 37.9141V38.9141H233.192V37.9141V36.9141H232.997V37.9141ZM233.192 37.9141L234.051 38.4255C234.606 37.494 235.34 36.8188 236.263 36.3734L235.829 35.4727L235.394 34.572C234.104 35.1942 233.08 36.1466 232.333 37.4026L233.192 37.9141ZM235.829 35.4727L236.259 36.3753C237.242 35.9067 238.286 35.6719 239.403 35.6719V34.6719V33.6719C237.994 33.6719 236.655 33.9709 235.398 34.57L235.829 35.4727ZM239.403 34.6719V35.6719C240.938 35.6719 242.121 35.9458 243.006 36.4287C243.875 36.9024 244.512 37.6061 244.929 38.5808L245.848 38.1875L246.768 37.7942C246.182 36.4252 245.244 35.3711 243.964 34.6729C242.701 33.9839 241.162 33.6719 239.403 33.6719V34.6719ZM245.848 38.1875V39.1875H246.044V38.1875V37.1875H245.848V38.1875ZM246.044 38.1875L246.906 38.6937C247.511 37.6622 248.32 36.9189 249.342 36.4352L248.915 35.5312L248.487 34.6273C247.088 35.2894 245.982 36.3169 245.181 37.6813L246.044 38.1875ZM248.915 35.5312L249.342 36.4352C250.415 35.9275 251.564 35.6719 252.801 35.6719V34.6719V33.6719C251.278 33.6719 249.836 33.9892 248.487 34.6273L248.915 35.5312Z" fill="black" mask="url(#path-2-outside-1_1166_589)"/>
<path d="M40.2316 55.5831C31.3177 55.5831 26.8608 50.7857 21.8096 42.79" stroke="#181C14" stroke-width="5" stroke-linecap="round" stroke-linejoin="round"/>
<path d="M49.9543 31.112C40.6762 14.9562 29.9971 27.7479 29.9971 35.8573" stroke="#181C14" stroke-width="5" stroke-linecap="round" stroke-linejoin="round"/>
<path d="M56.6075 36.394C60.1895 43.814 55.3282 52.2575 49.9551 53.7926" stroke="#181C14" stroke-width="5" stroke-linecap="round" stroke-linejoin="round"/>
<path d="M39.9766 48.6754C44.0704 38.4409 51.4903 37.1616 56.6076 36.394" stroke="#181C14" stroke-width="5" stroke-linecap="round" stroke-linejoin="round"/>
<path d="M40.2324 55.583V65.3058" stroke="#181C14" stroke-width="5" stroke-linecap="round" stroke-linejoin="round"/>
<path d="M39.9767 48.6754C36.1388 40.232 31.7891 36.9058 25.9043 35.3706" stroke="#181C14" stroke-width="5" stroke-linecap="round" stroke-linejoin="round"/>
<circle cx="40.2315" cy="67.3526" r="2.04689" fill="#181C14"/>
<circle cx="28.5141" cy="64.8451" r="2.09807" fill="#181C14"/>
<rect x="38.8242" y="65.4346" width="1.79103" height="1.27931" fill="#181C14" stroke="#181C14" stroke-width="1.27931"/>
<mask id="path-13-inside-2_1166_589" fill="white">
<path d="M40.2514 69.4229C47.4879 69.3611 54.4477 66.6347 59.8007 61.7648C65.1536 56.895 68.5242 50.2233 69.2682 43.0249C70.0122 35.8266 68.0774 28.6066 63.8336 22.7448C59.5898 16.8831 53.3347 12.7909 46.2639 11.2503C39.1931 9.70971 31.8026 10.8289 25.5049 14.3938C19.2073 17.9588 14.4442 23.7195 12.1262 30.5749C9.80819 37.4303 10.0978 44.8995 12.9397 51.5548C15.7815 58.2102 20.9763 63.5848 27.5311 66.6515L29.2893 62.8935C23.6587 60.2592 19.1964 55.6424 16.7553 49.9255C14.3142 44.2086 14.0654 37.7926 16.0565 31.9039C18.0477 26.0152 22.1391 21.0667 27.5488 18.0044C32.9585 14.9421 39.3069 13.9808 45.3807 15.3041C51.4545 16.6275 56.8276 20.1427 60.4729 25.1779C64.1183 30.2131 65.7803 36.4151 65.1412 42.5984C64.5022 48.7817 61.6068 54.5127 57.0087 58.6959C52.4105 62.8791 46.432 65.221 40.216 65.2742L40.2514 69.4229Z"/>
</mask>
<path d="M40.2514 69.4229C47.4879 69.3611 54.4477 66.6347 59.8007 61.7648C65.1536 56.895 68.5242 50.2233 69.2682 43.0249C70.0122 35.8266 68.0774 28.6066 63.8336 22.7448C59.5898 16.8831 53.3347 12.7909 46.2639 11.2503C39.1931 9.70971 31.8026 10.8289 25.5049 14.3938C19.2073 17.9588 14.4442 23.7195 12.1262 30.5749C9.80819 37.4303 10.0978 44.8995 12.9397 51.5548C15.7815 58.2102 20.9763 63.5848 27.5311 66.6515L29.2893 62.8935C23.6587 60.2592 19.1964 55.6424 16.7553 49.9255C14.3142 44.2086 14.0654 37.7926 16.0565 31.9039C18.0477 26.0152 22.1391 21.0667 27.5488 18.0044C32.9585 14.9421 39.3069 13.9808 45.3807 15.3041C51.4545 16.6275 56.8276 20.1427 60.4729 25.1779C64.1183 30.2131 65.7803 36.4151 65.1412 42.5984C64.5022 48.7817 61.6068 54.5127 57.0087 58.6959C52.4105 62.8791 46.432 65.221 40.216 65.2742L40.2514 69.4229Z" fill="#181C14" stroke="#181C14" stroke-width="10" mask="url(#path-13-inside-2_1166_589)"/>
</svg>
