<svg width="156" height="156" viewBox="0 0 156 156" fill="none" xmlns="http://www.w3.org/2000/svg">
<g clip-path="url(#clip0_524_284)">
<path d="M78.6207 108.621C61.2014 108.621 52.4917 99.2457 42.6207 83.6207" stroke="#F94281" stroke-width="8" stroke-linecap="round" stroke-linejoin="round"/>
<path d="M97.6207 60.7993C79.4897 29.228 58.6207 54.2252 58.6207 70.0726" stroke="#F94281" stroke-width="8" stroke-linecap="round" stroke-linejoin="round"/>
<path d="M110.621 71.1207C117.621 85.6207 108.121 102.121 97.6207 105.121" stroke="#F94281" stroke-width="8" stroke-linecap="round" stroke-linejoin="round"/>
<path d="M78.1207 95.1207C86.1207 75.1207 100.621 72.6207 110.621 71.1207" stroke="#F94281" stroke-width="8" stroke-linecap="round" stroke-linejoin="round"/>
<path d="M78.6207 108.621V127.621" stroke="#F94281" stroke-width="8" stroke-linecap="round" stroke-linejoin="round"/>
<path d="M78.1207 95.1207C70.6207 78.6207 62.1207 72.1207 50.6207 69.1207" stroke="#F94281" stroke-width="8" stroke-linecap="round" stroke-linejoin="round"/>
<path d="M42.6207 120.121C43.6207 122.121 49.6207 126.121 49.6207 126.121" stroke="#FBE8F1" stroke-width="3" stroke-linecap="round" stroke-linejoin="round"/>
<circle cx="78.6207" cy="131.621" r="4" fill="#F94281"/>
<circle cx="55.7207" cy="126.721" r="4.1" fill="#F94281"/>
<rect x="74.6207" y="126.621" width="6" height="5" fill="#F94281"/>
<path d="M78.6586 135.665C92.7998 135.544 106.401 130.216 116.861 120.7C127.322 111.183 133.909 98.1455 135.363 84.0786C136.816 70.0118 133.035 55.9025 124.742 44.4477C116.449 32.9928 104.226 24.9958 90.408 21.9852C76.5904 18.9747 62.148 21.1617 49.8412 28.1283C37.5345 35.0949 28.2266 46.3524 23.6968 59.7491C19.167 73.1457 19.7329 87.7419 25.2864 100.748C30.8399 113.753 40.9915 124.256 53.8007 130.249L57.2365 122.905C46.2334 117.758 37.5133 108.735 32.7429 97.5636C27.9724 86.3918 27.4863 73.8538 31.3774 62.3461C35.2685 50.8385 43.2639 41.1683 53.8353 35.184C64.4068 29.1998 76.8128 27.3211 88.682 29.9072C100.551 32.4932 111.051 39.3626 118.175 49.2023C125.299 59.0419 128.547 71.1618 127.298 83.2451C126.049 95.3285 120.391 106.528 111.405 114.702C102.42 122.877 90.7366 127.454 78.5893 127.558L78.6586 135.665Z" fill="#F94281"/>
</g>
<defs>
<clipPath id="clip0_524_284">
<rect width="156" height="156" fill="white"/>
</clipPath>
</defs>
</svg>
